# xmcd
#
# Track frame offsets:
#	150
#	13295
#	27654
#	42824
#	58329
#	69985
#	79060
#	92101
#	105029
#	115764
#	133622
#
# Disc length: 1924 seconds
#
# Revision: 1
# Processed by: cddbd v1.5.1PL0 Copyright (c) Steve Scherf et al.
# Submitted via: EasyCDDAExtractor 7.0.3.1
#
DISCID=8c07820b
DTITLE=Blueprintmusic - Ghosts and Eskimos
DYEAR=2003
DGENRE=Other
TTITLE0=Please, Peace
TTITLE1=Stars for the Sun
TTITLE2=Got it Made
TTITLE3=Lifted
TTITLE4=Logan
TTITLE5=Windowpanes
TTITLE6=Ghosts and Eskimos
TTITLE7=Nashville
TTITLE8=All My Life
TTITLE9=Keep My Memory
TTITLE10=Decision Disaster
EXTD=YEAR: 2003
EXTT0=
EXTT1=
EXTT2=
EXTT3=
EXTT4=
EXTT5=
EXTT6=
EXTT7=
EXTT8=
EXTT9=
EXTT10=
PLAYORDER=
